<?xml version="1.0" ?><!-- Uploaded to: SVG Repo, www.svgrepo.com, Generator: SVG Repo Mixer Tools -->
<svg width="800px" height="800px" viewBox="0 0 1000 1000" id="Layer_2" version="1.1" xml:space="preserve" xmlns="http://www.w3.org/2000/svg" xmlns:xlink="http://www.w3.org/1999/xlink"><path d="M813.435,465.667c-14.549,0-26.976,9.055-31.976,21.833h-63.805v-60.496h34.952  c6.903,0,12.5-5.596,12.5-12.5c0-6.904-5.597-12.5-12.5-12.5h-34.952v-60.496h34.952c6.903,0,12.5-5.596,12.5-12.5  c0-6.903-5.597-12.5-12.5-12.5h-34.952v-3.806c0-16.569-13.431-30-30-30h-4.306V247.25c0-6.904-5.596-12.5-12.5-12.5  c-6.904,0-12.5,5.596-12.5,12.5v35.452h-60.496v-63.661c12.778-5,21.834-17.426,21.834-31.976c0-18.962-15.372-34.333-34.334-34.333  c-18.962,0-34.333,15.372-34.333,34.333c0,14.55,9.055,26.977,21.833,31.976v63.661h-60.496V247.25c0-6.904-5.597-12.5-12.5-12.5  c-6.904,0-12.5,5.596-12.5,12.5v35.452h-60.496v-63.661c12.778-5,21.833-17.426,21.833-31.976c0-18.962-15.372-34.333-34.333-34.333  c-18.962,0-34.333,15.372-34.333,34.333c0,14.55,9.055,26.977,21.833,31.976v63.661h-60.496V247.25c0-6.904-5.596-12.5-12.5-12.5  c-6.904,0-12.5,5.596-12.5,12.5v35.452h-4.306c-16.569,0-30,13.431-30,30v3.806h-34.952c-6.904,0-12.5,5.597-12.5,12.5  c0,6.904,5.596,12.5,12.5,12.5h34.952v60.496h-34.952c-6.904,0-12.5,5.596-12.5,12.5c0,6.904,5.596,12.5,12.5,12.5h34.952V487.5  h-63.518c-4.999-12.778-17.426-21.833-31.976-21.833c-18.962,0-34.333,15.372-34.333,34.333c0,18.962,15.372,34.333,34.333,34.333  c14.549,0,26.977-9.055,31.976-21.833h63.518v60.496h-34.952c-6.904,0-12.5,5.596-12.5,12.5c0,6.904,5.596,12.5,12.5,12.5h34.952  v60.496h-34.952c-6.904,0-12.5,5.597-12.5,12.5l0,0c0,6.904,5.596,12.5,12.5,12.5h34.952v4.807c0,16.569,13.431,30,30,30h4.306  v34.452c0,6.903,5.596,12.5,12.5,12.5c6.904,0,12.5-5.597,12.5-12.5v-34.452h60.496v62.661  c-12.778,4.999-21.833,17.426-21.833,31.976c0,18.962,15.371,34.333,34.333,34.333c18.962,0,34.333-15.372,34.333-34.333  c0-14.55-9.055-26.977-21.833-31.976v-62.661h60.496v34.452c0,6.903,5.596,12.5,12.5,12.5c6.904,0,12.5-5.597,12.5-12.5v-34.452  h60.496v62.661c-12.778,4.999-21.833,17.426-21.833,31.976c0,18.962,15.372,34.333,34.333,34.333  c18.962,0,34.334-15.372,34.334-34.333c0-14.55-9.055-26.977-21.834-31.976v-62.661h60.496v34.452c0,6.903,5.596,12.5,12.5,12.5  c6.904,0,12.5-5.597,12.5-12.5v-34.452h4.306c16.569,0,30-13.431,30-30v-4.807h34.952c6.903,0,12.5-5.596,12.5-12.5l0,0  c0-6.903-5.597-12.5-12.5-12.5h-34.952v-60.496h34.952c6.903,0,12.5-5.596,12.5-12.5c0-6.904-5.597-12.5-12.5-12.5h-34.952V512.5  h63.805c5,12.778,17.426,21.833,31.976,21.833c18.962,0,34.333-15.372,34.333-34.333  C847.768,481.038,832.397,465.667,813.435,465.667z M478.875,346.582h133.962c6.903,0,12.5,5.596,12.5,12.5  c0,6.904-5.597,12.5-12.5,12.5H478.875c-6.904,0-12.5-5.596-12.5-12.5C466.375,352.178,471.972,346.582,478.875,346.582z   M559.785,467.649c-4.882-4.882-4.882-12.796,0-17.678c4.882-4.882,12.796-4.882,17.677,0l42.191,42.19  c4.881,4.882,4.881,12.796,0,17.678l-42.191,42.191c-4.881,4.881-12.796,4.881-17.677,0c-4.882-4.882-4.882-12.796,0-17.678  L593.137,501L559.785,467.649z M386.875,346.582h41.296c6.904,0,12.5,5.596,12.5,12.5c0,6.904-5.596,12.5-12.5,12.5h-41.296  c-6.904,0-12.5-5.596-12.5-12.5C374.375,352.178,379.972,346.582,386.875,346.582z M326.19,315.562c6.904,0,12.5,5.597,12.5,12.5  c0,6.904-5.596,12.5-12.5,12.5c-6.904,0-12.5-5.596-12.5-12.5C313.69,321.159,319.286,315.562,326.19,315.562z M326.19,660.438  c6.904,0,12.5,5.597,12.5,12.5c0,6.904-5.596,12.5-12.5,12.5c-6.904,0-12.5-5.596-12.5-12.5  C313.69,666.035,319.286,660.438,326.19,660.438z M361.979,555.691h-27.486c-6.904,0-12.5-5.596-12.5-12.5  c0-6.904,5.596-12.5,12.5-12.5h27.486c6.904,0,12.5,5.596,12.5,12.5C374.479,550.095,368.883,555.691,361.979,555.691z   M428.171,654.419h-41.296c-6.904,0-12.5-5.596-12.5-12.5c0-6.904,5.596-12.5,12.5-12.5h41.296c6.904,0,12.5,5.596,12.5,12.5  C440.671,648.822,435.075,654.419,428.171,654.419z M439.928,534.352c4.882,4.881,4.882,12.796,0,17.678  c-4.882,4.881-12.796,4.881-17.677,0l-42.191-42.191c-4.881-4.881-4.881-12.796,0-17.678l42.191-42.19  c4.881-4.882,12.796-4.882,17.677,0c4.882,4.881,4.882,12.796,0,17.678L406.577,501L439.928,534.352z M467.001,560.693  l41.969-127.219c2.163-6.556,9.231-10.117,15.787-7.955c6.556,2.163,10.117,9.231,7.955,15.787l-41.969,127.219  c-2.163,6.556-9.231,10.117-15.787,7.955C468.4,574.318,464.839,567.249,467.001,560.693z M612.838,654.419H478.875  c-6.904,0-12.5-5.596-12.5-12.5c0-6.904,5.596-12.5,12.5-12.5h133.962c6.903,0,12.5,5.596,12.5,12.5  C625.338,648.822,619.741,654.419,612.838,654.419z M625.234,543.191c0-6.904,5.596-12.5,12.5-12.5h27.486  c6.904,0,12.5,5.596,12.5,12.5c0,6.904-5.596,12.5-12.5,12.5h-27.486C630.83,555.691,625.234,550.095,625.234,543.191z   M673.523,685.438c-6.904,0-12.5-5.596-12.5-12.5c0-6.903,5.596-12.5,12.5-12.5c6.904,0,12.5,5.597,12.5,12.5  C686.023,679.842,680.427,685.438,673.523,685.438z M673.523,340.562c-6.904,0-12.5-5.596-12.5-12.5c0-6.903,5.596-12.5,12.5-12.5  c6.904,0,12.5,5.597,12.5,12.5C686.023,334.966,680.427,340.562,673.523,340.562z" style="fill:#231F20;"/></svg>